<svg width="31" height="31" viewBox="0 0 31 31" fill="none" xmlns="http://www.w3.org/2000/svg">
<path fill-rule="evenodd" clip-rule="evenodd" d="M5.238 2.59398C5.238 1.40986 6.19791 0.449951 7.38202 0.449951H28.8219C29.3903 0.449951 29.9363 0.675843 30.3381 1.07792C30.7399 1.48 30.966 2.0253 30.966 2.59398V24.0336C30.966 25.218 30.0063 26.1777 28.8219 26.1777C27.6382 26.1777 26.6778 25.218 26.6778 24.0336V7.76999L4.61003 29.838C3.77276 30.6752 2.41525 30.6752 1.57798 29.838C0.74071 29.0008 0.74071 27.6428 1.57798 26.8056L23.6461 4.73794H7.38202C6.19791 4.73794 5.238 3.77803 5.238 2.59398Z" fill="white"/>
</svg>